<svg xmlns="http://www.w3.org/2000/svg"><path d="M3.493.513A1.533 1.533 0 0 0 2.449.98L.503 3.024c.002-.006-.008-.006-.063.069a.444.444 0 0 0-.068.126C-.42 5.63.112 8.282 1.405 10.805 2.698 13.327 4.76 15.74 7.13 17.72c2.368 1.981 5.04 3.53 7.589 4.3 2.548.768 5.019.758 6.85-.512a.47.47 0 0 0 .056-.046c.047-.046.05-.052.041-.045l.008-.009 1.936-2.035a1.403 1.403 0 0 0-.1-2.035l-4.594-3.993c-.612-.531-1.574-.489-2.13.096l-2.079 2.184c-1.687-.467-3.13-1.258-4.517-2.464-1.388-1.206-2.35-2.505-2.995-4.066l2.078-2.184a1.403 1.403 0 0 0-.1-2.036L4.58.884A1.547 1.547 0 0 0 3.493.513Zm.043.896a.578.578 0 0 1 .406.144l4.594 3.992a.512.512 0 0 1 .038.76L6.276 8.719a.433.433 0 0 0-.094.458c.698 1.818 1.823 3.31 3.37 4.655 1.548 1.345 3.207 2.274 5.167 2.766a.493.493 0 0 0 .47-.133l2.297-2.413a.57.57 0 0 1 .795-.036l4.595 3.993a.51.51 0 0 1 .037.76l-1.921 2.017c-1.503 1.03-3.62 1.088-5.99.373-2.38-.718-4.963-2.204-7.25-4.117-2.286-1.912-4.275-4.247-5.498-6.632-1.21-2.36-1.65-4.747-.984-6.85l1.876-1.97a.572.572 0 0 1 .39-.18Z" fill="#FF6B09"/></svg>